<svg xmlns="http://www.w3.org/2000/svg" xmlns:xlink="http://www.w3.org/1999/xlink" width="500" zoomAndPan="magnify" viewBox="0 0 375 374.999991" height="500" preserveAspectRatio="xMidYMid meet" version="1.0"><defs><clipPath id="85fa72bc36"><path d="M 46.800781 61 L 328.050781 61 L 328.050781 334.558594 L 46.800781 334.558594 Z M 46.800781 61 " clip-rule="nonzero"/></clipPath><clipPath id="3b04570400"><path d="M 152 40.558594 L 310 40.558594 L 310 129 L 152 129 Z M 152 40.558594 " clip-rule="nonzero"/></clipPath></defs><g clip-path="url(#85fa72bc36)"><path fill="#51c2ff" d="M 328.15625 184.066406 C 328.160156 181.726562 327.910156 179.414062 327.414062 177.128906 C 326.917969 174.84375 326.183594 172.636719 325.210938 170.511719 C 324.238281 168.382812 323.046875 166.386719 321.644531 164.515625 C 320.238281 162.644531 318.648438 160.949219 316.878906 159.421875 C 315.402344 158.148438 313.109375 159.191406 313.109375 161.140625 L 313.109375 177.730469 C 313.109375 178.265625 313.039062 178.796875 312.902344 179.316406 C 312.761719 179.835938 312.558594 180.328125 312.289062 180.792969 C 312.019531 181.261719 311.695312 181.683594 311.316406 182.0625 C 310.933594 182.445312 310.511719 182.769531 310.046875 183.039062 L 298.664062 189.609375 C 298.195312 189.878906 297.703125 190.085938 297.183594 190.222656 C 296.664062 190.363281 296.136719 190.433594 295.597656 190.433594 C 295.058594 190.433594 294.53125 190.363281 294.011719 190.222656 C 293.492188 190.085938 293 189.878906 292.53125 189.609375 L 281.148438 183.039062 C 280.683594 182.769531 280.261719 182.445312 279.878906 182.066406 C 279.5 181.6875 279.175781 181.261719 278.90625 180.796875 C 278.636719 180.332031 278.433594 179.835938 278.292969 179.316406 C 278.152344 178.796875 278.085938 178.269531 278.085938 177.730469 L 278.085938 161.140625 C 278.085938 159.195312 275.800781 158.140625 274.328125 159.410156 C 273.847656 159.824219 273.378906 160.253906 272.925781 160.695312 C 272.46875 161.136719 272.027344 161.59375 271.597656 162.058594 C 271.167969 162.527344 270.753906 163.007812 270.355469 163.5 C 269.953125 163.992188 269.566406 164.496094 269.195312 165.011719 C 268.824219 165.523438 268.46875 166.050781 268.128906 166.585938 C 267.785156 167.121094 267.460938 167.667969 267.152344 168.222656 C 266.84375 168.773438 266.550781 169.339844 266.277344 169.910156 C 266 170.480469 265.742188 171.0625 265.5 171.648438 C 265.257812 172.234375 265.03125 172.828125 264.824219 173.425781 C 264.617188 174.027344 264.425781 174.632812 264.253906 175.242188 C 264.082031 175.855469 263.929688 176.46875 263.792969 177.089844 C 263.65625 177.710938 263.539062 178.332031 263.4375 178.960938 C 263.339844 179.585938 263.257812 180.214844 263.195312 180.847656 C 263.132812 181.480469 263.089844 182.113281 263.0625 182.746094 C 263.035156 183.382812 263.027344 184.015625 263.039062 184.652344 C 263.050781 185.285156 263.082031 185.917969 263.128906 186.550781 C 263.175781 187.183594 263.242188 187.816406 263.328125 188.445312 C 263.414062 189.074219 263.519531 189.699219 263.640625 190.324219 C 263.761719 190.945312 263.902344 191.566406 264.058594 192.179688 C 264.214844 192.792969 264.390625 193.402344 264.585938 194.007812 C 264.777344 194.613281 264.988281 195.210938 265.21875 195.804688 C 265.445312 196.394531 265.691406 196.980469 265.957031 197.558594 C 266.21875 198.136719 266.496094 198.707031 266.792969 199.269531 C 267.089844 199.828125 267.402344 200.382812 267.730469 200.925781 C 268.058594 201.46875 268.402344 202 268.761719 202.523438 C 269.121094 203.046875 269.496094 203.558594 269.882812 204.0625 C 270.273438 204.5625 270.675781 205.050781 271.09375 205.53125 C 271.511719 206.007812 271.945312 206.472656 272.390625 206.925781 C 272.835938 207.378906 273.292969 207.816406 273.761719 208.242188 C 274.234375 208.667969 274.714844 209.082031 275.210938 209.476562 C 275.707031 209.875 276.210938 210.257812 276.730469 210.625 C 277.246094 210.996094 277.773438 211.347656 278.3125 211.683594 C 278.238281 212.003906 278.164062 212.324219 278.085938 212.648438 L 278.058594 212.773438 C 277.980469 213.09375 277.898438 213.414062 277.816406 213.734375 C 277.808594 213.78125 277.796875 213.824219 277.785156 213.871094 C 277.707031 214.183594 277.625 214.492188 277.539062 214.804688 L 277.5 214.964844 C 277.417969 215.257812 277.335938 215.5625 277.253906 215.859375 C 277.234375 215.925781 277.21875 215.988281 277.199219 216.054688 C 277.117188 216.347656 277.03125 216.636719 276.949219 216.925781 C 276.925781 216.996094 276.90625 217.070312 276.886719 217.140625 C 276.804688 217.421875 276.71875 217.699219 276.632812 217.976562 C 276.605469 218.058594 276.582031 218.140625 276.558594 218.222656 C 276.480469 218.476562 276.402344 218.726562 276.320312 218.976562 C 276.285156 219.085938 276.253906 219.195312 276.21875 219.304688 C 276.144531 219.527344 276.070312 219.75 275.996094 219.976562 C 275.949219 220.109375 275.90625 220.246094 275.863281 220.378906 C 275.792969 220.574219 275.722656 220.777344 275.65625 220.976562 C 275.601562 221.136719 275.546875 221.292969 275.492188 221.453125 C 275.4375 221.609375 275.371094 221.792969 275.308594 221.964844 C 275.246094 222.136719 275.175781 222.335938 275.113281 222.519531 C 275.070312 222.632812 275.027344 222.75 274.984375 222.863281 C 274.503906 224.167969 273.988281 225.464844 273.445312 226.75 C 272.308594 229.4375 271.042969 232.0625 269.648438 234.628906 C 268.257812 237.191406 266.746094 239.6875 265.113281 242.105469 C 263.484375 244.527344 261.738281 246.863281 259.882812 249.113281 C 258.027344 251.367188 256.066406 253.527344 254 255.589844 C 251.9375 257.652344 249.78125 259.613281 247.527344 261.46875 C 245.273438 263.328125 242.9375 265.070312 240.519531 266.703125 C 238.097656 268.332031 235.605469 269.84375 233.039062 271.238281 C 230.472656 272.628906 227.847656 273.894531 225.160156 275.035156 C 213.972656 279.765625 202.089844 282.164062 189.839844 282.164062 C 177.59375 282.164062 165.707031 279.765625 154.519531 275.035156 C 152.832031 274.316406 151.171875 273.554688 149.535156 272.746094 C 144.710938 270.347656 140.132812 267.539062 135.804688 264.328125 C 131.476562 261.117188 127.464844 257.546875 123.769531 253.621094 C 120.074219 249.695312 116.753906 245.476562 113.808594 240.964844 C 110.863281 236.449219 108.335938 231.710938 106.234375 226.746094 C 101.5 215.558594 99.101562 203.675781 99.101562 191.425781 C 99.101562 179.175781 101.5 167.292969 106.234375 156.105469 C 107.371094 153.417969 108.636719 150.792969 110.03125 148.226562 C 111.421875 145.660156 112.933594 143.167969 114.566406 140.75 C 116.195312 138.328125 117.941406 135.992188 119.796875 133.738281 C 121.652344 131.488281 123.613281 129.328125 125.679688 127.265625 C 127.742188 125.199219 129.898438 123.238281 132.152344 121.382812 C 134.40625 119.527344 136.742188 117.785156 139.160156 116.152344 C 141.582031 114.519531 144.074219 113.007812 146.640625 111.617188 C 149.207031 110.222656 151.832031 108.957031 154.519531 107.820312 C 156.503906 106.980469 158.511719 106.214844 160.539062 105.523438 L 160.539062 72.910156 C 155.488281 74.15625 150.535156 75.71875 145.6875 77.601562 L 138.152344 65.335938 C 137.875 64.882812 137.558594 64.464844 137.199219 64.078125 C 136.839844 63.6875 136.449219 63.335938 136.023438 63.023438 C 135.597656 62.710938 135.144531 62.441406 134.667969 62.214844 C 134.191406 61.992188 133.695312 61.8125 133.183594 61.683594 C 132.671875 61.554688 132.152344 61.472656 131.625 61.445312 C 131.09375 61.417969 130.570312 61.4375 130.046875 61.511719 C 129.523438 61.582031 129.011719 61.707031 128.511719 61.878906 C 128.011719 62.046875 127.53125 62.265625 127.074219 62.53125 L 109.597656 72.621094 C 109.140625 72.882812 108.710938 73.1875 108.3125 73.535156 C 107.914062 73.882812 107.554688 74.265625 107.230469 74.683594 C 106.90625 75.097656 106.621094 75.542969 106.382812 76.015625 C 106.144531 76.484375 105.953125 76.976562 105.808594 77.484375 C 105.667969 77.992188 105.574219 78.511719 105.527344 79.039062 C 105.484375 79.5625 105.492188 80.089844 105.550781 80.613281 C 105.609375 81.140625 105.714844 81.65625 105.875 82.160156 C 106.03125 82.664062 106.238281 83.148438 106.488281 83.613281 L 113.355469 96.300781 C 106.46875 101.839844 100.257812 108.054688 94.714844 114.9375 L 82.027344 108.074219 C 81.5625 107.824219 81.078125 107.617188 80.574219 107.460938 C 80.070312 107.304688 79.554688 107.195312 79.027344 107.136719 C 78.503906 107.078125 77.976562 107.070312 77.449219 107.113281 C 76.925781 107.160156 76.40625 107.253906 75.898438 107.394531 C 75.390625 107.539062 74.898438 107.730469 74.425781 107.96875 C 73.957031 108.207031 73.511719 108.488281 73.09375 108.816406 C 72.675781 109.140625 72.296875 109.5 71.949219 109.898438 C 71.601562 110.296875 71.296875 110.726562 71.03125 111.183594 L 60.941406 128.660156 C 60.679688 129.117188 60.460938 129.59375 60.289062 130.09375 C 60.117188 130.59375 59.996094 131.105469 59.921875 131.628906 C 59.851562 132.152344 59.828125 132.679688 59.859375 133.207031 C 59.886719 133.734375 59.96875 134.253906 60.097656 134.765625 C 60.226562 135.28125 60.40625 135.773438 60.628906 136.253906 C 60.855469 136.730469 61.125 137.183594 61.4375 137.609375 C 61.75 138.035156 62.101562 138.425781 62.492188 138.785156 C 62.878906 139.140625 63.300781 139.457031 63.75 139.734375 L 76.011719 147.269531 C 72.8125 155.515625 70.542969 164.007812 69.203125 172.75 L 54.796875 173.148438 C 54.265625 173.160156 53.746094 173.226562 53.230469 173.34375 C 52.714844 173.457031 52.214844 173.621094 51.730469 173.835938 C 51.246094 174.046875 50.789062 174.304688 50.351562 174.605469 C 49.917969 174.90625 49.519531 175.246094 49.148438 175.625 C 48.78125 176.003906 48.453125 176.414062 48.164062 176.855469 C 47.875 177.296875 47.628906 177.761719 47.429688 178.253906 C 47.230469 178.742188 47.082031 179.246094 46.980469 179.765625 C 46.878906 180.285156 46.828125 180.808594 46.828125 181.335938 L 46.828125 201.515625 C 46.828125 202.042969 46.878906 202.566406 46.980469 203.085938 C 47.082031 203.605469 47.230469 204.109375 47.429688 204.597656 C 47.628906 205.085938 47.875 205.554688 48.164062 205.996094 C 48.453125 206.4375 48.78125 206.847656 49.148438 207.226562 C 49.519531 207.605469 49.917969 207.945312 50.351562 208.246094 C 50.789062 208.546875 51.246094 208.804688 51.730469 209.015625 C 52.214844 209.230469 52.714844 209.394531 53.230469 209.507812 C 53.746094 209.625 54.265625 209.6875 54.796875 209.703125 L 69.203125 210.101562 C 70.542969 218.84375 72.8125 227.335938 76.011719 235.578125 L 63.75 243.113281 C 63.300781 243.390625 62.878906 243.707031 62.492188 244.066406 C 62.101562 244.421875 61.75 244.816406 61.4375 245.242188 C 61.125 245.667969 60.855469 246.117188 60.628906 246.597656 C 60.40625 247.074219 60.226562 247.570312 60.097656 248.082031 C 59.96875 248.59375 59.886719 249.113281 59.859375 249.640625 C 59.828125 250.167969 59.851562 250.695312 59.921875 251.21875 C 59.996094 251.742188 60.117188 252.253906 60.289062 252.753906 C 60.460938 253.253906 60.679688 253.730469 60.941406 254.191406 L 71.03125 271.671875 C 71.296875 272.128906 71.601562 272.554688 71.949219 272.953125 C 72.296875 273.351562 72.675781 273.714844 73.09375 274.039062 C 73.511719 274.363281 73.957031 274.644531 74.425781 274.882812 C 74.898438 275.121094 75.390625 275.3125 75.898438 275.457031 C 76.40625 275.601562 76.921875 275.695312 77.449219 275.738281 C 77.976562 275.78125 78.503906 275.773438 79.027344 275.71875 C 79.554688 275.660156 80.066406 275.550781 80.570312 275.394531 C 81.078125 275.234375 81.5625 275.03125 82.027344 274.777344 L 94.714844 267.914062 C 100.257812 274.800781 106.472656 281.011719 113.355469 286.554688 L 106.488281 299.242188 C 106.238281 299.707031 106.03125 300.191406 105.875 300.695312 C 105.714844 301.199219 105.609375 301.714844 105.550781 302.238281 C 105.492188 302.765625 105.484375 303.292969 105.527344 303.816406 C 105.574219 304.34375 105.667969 304.863281 105.808594 305.371094 C 105.953125 305.878906 106.144531 306.367188 106.382812 306.839844 C 106.621094 307.3125 106.90625 307.753906 107.230469 308.171875 C 107.554688 308.589844 107.914062 308.972656 108.3125 309.320312 C 108.710938 309.664062 109.140625 309.972656 109.597656 310.234375 L 127.070312 320.324219 C 127.527344 320.589844 128.007812 320.804688 128.507812 320.976562 C 129.007812 321.148438 129.519531 321.273438 130.042969 321.34375 C 130.566406 321.417969 131.089844 321.4375 131.621094 321.410156 C 132.148438 321.378906 132.667969 321.300781 133.179688 321.171875 C 133.691406 321.042969 134.1875 320.863281 134.664062 320.636719 C 135.140625 320.414062 135.59375 320.144531 136.019531 319.832031 C 136.445312 319.519531 136.835938 319.167969 137.195312 318.777344 C 137.554688 318.390625 137.871094 317.96875 138.148438 317.519531 L 145.683594 305.253906 C 153.929688 308.453125 162.421875 310.726562 171.160156 312.066406 L 171.558594 326.472656 C 171.574219 327.003906 171.636719 327.523438 171.753906 328.039062 C 171.871094 328.554688 172.035156 329.054688 172.246094 329.539062 C 172.457031 330.023438 172.714844 330.480469 173.015625 330.917969 C 173.316406 331.351562 173.65625 331.75 174.035156 332.121094 C 174.414062 332.488281 174.824219 332.816406 175.269531 333.105469 C 175.710938 333.394531 176.175781 333.640625 176.667969 333.835938 C 177.15625 334.035156 177.660156 334.1875 178.179688 334.289062 C 178.695312 334.390625 179.21875 334.441406 179.75 334.441406 L 199.925781 334.441406 C 200.453125 334.441406 200.976562 334.390625 201.496094 334.289062 C 202.011719 334.1875 202.515625 334.035156 203.007812 333.835938 C 203.496094 333.636719 203.960938 333.394531 204.40625 333.105469 C 204.847656 332.816406 205.257812 332.488281 205.636719 332.121094 C 206.015625 331.75 206.355469 331.351562 206.65625 330.917969 C 206.957031 330.480469 207.214844 330.023438 207.429688 329.539062 C 207.640625 329.054688 207.804688 328.554688 207.921875 328.039062 C 208.035156 327.523438 208.101562 327.003906 208.117188 326.472656 L 208.515625 312.066406 C 217.253906 310.726562 225.746094 308.453125 233.992188 305.253906 L 241.527344 317.519531 C 241.804688 317.96875 242.121094 318.390625 242.476562 318.777344 C 242.835938 319.167969 243.226562 319.519531 243.652344 319.832031 C 244.078125 320.144531 244.53125 320.414062 245.011719 320.636719 C 245.488281 320.863281 245.984375 321.042969 246.496094 321.171875 C 247.007812 321.300781 247.527344 321.378906 248.054688 321.410156 C 248.582031 321.4375 249.109375 321.417969 249.632812 321.34375 C 250.15625 321.273438 250.667969 321.148438 251.167969 320.976562 C 251.667969 320.804688 252.144531 320.589844 252.601562 320.324219 L 270.078125 310.234375 C 270.535156 309.972656 270.964844 309.664062 271.363281 309.316406 C 271.761719 308.972656 272.121094 308.589844 272.445312 308.171875 C 272.769531 307.753906 273.050781 307.3125 273.289062 306.839844 C 273.527344 306.367188 273.71875 305.878906 273.863281 305.371094 C 274.007812 304.859375 274.101562 304.34375 274.144531 303.816406 C 274.1875 303.289062 274.179688 302.765625 274.125 302.238281 C 274.066406 301.714844 273.957031 301.199219 273.800781 300.695312 C 273.640625 300.191406 273.4375 299.707031 273.1875 299.242188 L 266.320312 286.554688 C 273.207031 281.011719 279.421875 274.800781 284.96875 267.914062 L 297.652344 274.777344 C 298.117188 275.03125 298.601562 275.234375 299.105469 275.394531 C 299.613281 275.550781 300.125 275.660156 300.652344 275.71875 C 301.175781 275.777344 301.703125 275.785156 302.230469 275.742188 C 302.757812 275.695312 303.273438 275.601562 303.785156 275.460938 C 304.292969 275.316406 304.78125 275.125 305.253906 274.886719 C 305.726562 274.648438 306.171875 274.367188 306.585938 274.039062 C 307.003906 273.714844 307.386719 273.355469 307.734375 272.957031 C 308.082031 272.558594 308.386719 272.128906 308.652344 271.671875 L 318.742188 254.195312 C 319.003906 253.738281 319.222656 253.257812 319.394531 252.757812 C 319.566406 252.261719 319.6875 251.75 319.761719 251.226562 C 319.832031 250.703125 319.855469 250.175781 319.824219 249.648438 C 319.796875 249.121094 319.71875 248.601562 319.585938 248.089844 C 319.457031 247.574219 319.28125 247.082031 319.054688 246.601562 C 318.828125 246.125 318.558594 245.671875 318.246094 245.246094 C 317.933594 244.820312 317.582031 244.429688 317.195312 244.070312 C 316.804688 243.714844 316.386719 243.394531 315.9375 243.121094 L 303.671875 235.582031 C 306.476562 228.359375 308.566406 220.929688 309.945312 213.304688 C 320.730469 207.996094 328.15625 196.898438 328.15625 184.066406 Z M 328.15625 184.066406 " fill-opacity="1" fill-rule="nonzero"/></g><path fill="#1248b8" d="M 111.296875 212.539062 C 120.527344 247.535156 152.402344 273.339844 190.292969 273.339844 C 228.1875 273.339844 260.058594 247.535156 269.289062 212.539062 C 197.113281 268.582031 108.058594 175.65625 111.296875 212.539062 Z M 111.296875 212.539062 " fill-opacity="1" fill-rule="nonzero"/><path fill="#1248b8" d="M 306.625 153.175781 C 306.625 146.449219 298.140625 134.660156 294.449219 134.660156 C 291.496094 134.660156 282.273438 146.449219 282.273438 153.175781 C 282.265625 153.976562 282.335938 154.777344 282.488281 155.566406 C 282.640625 156.355469 282.867188 157.121094 283.167969 157.867188 C 283.472656 158.613281 283.84375 159.320312 284.285156 159.992188 C 284.730469 160.664062 285.234375 161.285156 285.800781 161.855469 C 286.367188 162.425781 286.984375 162.9375 287.648438 163.386719 C 288.316406 163.835938 289.023438 164.214844 289.765625 164.523438 C 290.507812 164.832031 291.273438 165.066406 292.058594 165.222656 C 292.847656 165.382812 293.644531 165.460938 294.449219 165.460938 C 295.253906 165.460938 296.050781 165.382812 296.835938 165.222656 C 297.625 165.066406 298.390625 164.832031 299.132812 164.523438 C 299.875 164.214844 300.582031 163.835938 301.246094 163.386719 C 301.914062 162.9375 302.53125 162.425781 303.097656 161.855469 C 303.664062 161.285156 304.167969 160.664062 304.609375 159.992188 C 305.054688 159.320312 305.425781 158.613281 305.730469 157.867188 C 306.03125 157.121094 306.257812 156.355469 306.410156 155.566406 C 306.558594 154.777344 306.632812 153.976562 306.625 153.175781 Z M 306.625 153.175781 " fill-opacity="1" fill-rule="nonzero"/><g clip-path="url(#3b04570400)"><path fill="#d9d9d9" d="M 307.589844 118.671875 L 306.414062 118.671875 L 306.414062 108.839844 C 306.414062 92.175781 292.910156 78.667969 276.246094 78.667969 L 272.667969 78.667969 C 272.5625 78.285156 272.402344 77.925781 272.175781 77.59375 C 271.953125 77.261719 271.683594 76.972656 271.367188 76.730469 C 271.046875 76.488281 270.699219 76.300781 270.320312 76.175781 C 269.941406 76.046875 269.554688 75.980469 269.152344 75.980469 L 261.808594 75.980469 C 260.417969 74.921875 258.9375 74.007812 257.367188 73.242188 L 257.367188 61.464844 C 257.367188 61.167969 257.308594 60.882812 257.195312 60.609375 C 257.082031 60.335938 256.921875 60.09375 256.710938 59.882812 C 256.503906 59.675781 256.261719 59.511719 255.988281 59.398438 C 255.714844 59.285156 255.429688 59.230469 255.132812 59.230469 L 245.792969 59.230469 L 245.792969 49.019531 C 245.894531 48.929688 245.996094 48.839844 246.089844 48.746094 L 261.367188 48.746094 C 261.828125 48.738281 262.273438 48.644531 262.699219 48.460938 C 263.125 48.277344 263.5 48.023438 263.824219 47.691406 C 264.148438 47.363281 264.398438 46.984375 264.574219 46.554688 C 264.75 46.125 264.835938 45.679688 264.835938 45.214844 C 264.835938 44.753906 264.75 44.308594 264.574219 43.878906 C 264.398438 43.449219 264.148438 43.070312 263.824219 42.742188 C 263.5 42.410156 263.125 42.15625 262.699219 41.972656 C 262.273438 41.789062 261.828125 41.695312 261.367188 41.6875 L 245.234375 41.6875 C 244.789062 41.410156 244.3125 41.199219 243.808594 41.054688 C 243.304688 40.914062 242.792969 40.839844 242.269531 40.839844 C 241.746094 40.839844 241.230469 40.914062 240.726562 41.054688 C 240.222656 41.199219 239.75 41.410156 239.304688 41.6875 L 223.160156 41.6875 C 222.695312 41.695312 222.25 41.789062 221.824219 41.972656 C 221.398438 42.15625 221.023438 42.410156 220.699219 42.742188 C 220.375 43.070312 220.125 43.449219 219.949219 43.878906 C 219.773438 44.308594 219.6875 44.753906 219.6875 45.214844 C 219.6875 45.679688 219.773438 46.125 219.949219 46.554688 C 220.125 46.984375 220.375 47.363281 220.699219 47.691406 C 221.023438 48.023438 221.398438 48.277344 221.824219 48.460938 C 222.25 48.644531 222.695312 48.738281 223.160156 48.746094 L 238.4375 48.746094 C 238.535156 48.84375 238.632812 48.929688 238.730469 49.019531 L 238.730469 59.230469 L 229.390625 59.230469 C 229.09375 59.230469 228.808594 59.285156 228.535156 59.398438 C 228.257812 59.511719 228.019531 59.675781 227.808594 59.882812 C 227.597656 60.09375 227.4375 60.335938 227.324219 60.609375 C 227.210938 60.882812 227.152344 61.167969 227.152344 61.464844 L 227.152344 73.238281 C 225.582031 74.007812 224.105469 74.921875 222.714844 75.980469 L 171.46875 75.980469 L 171.46875 73.261719 C 171.46875 72.882812 171.394531 72.511719 171.25 72.160156 C 171.101562 71.804688 170.894531 71.492188 170.625 71.222656 C 170.355469 70.953125 170.042969 70.746094 169.6875 70.597656 C 169.335938 70.453125 168.96875 70.378906 168.585938 70.378906 L 155.875 70.378906 C 155.492188 70.378906 155.121094 70.453125 154.769531 70.597656 C 154.414062 70.746094 154.101562 70.953125 153.832031 71.222656 C 153.5625 71.492188 153.355469 71.804688 153.207031 72.160156 C 153.0625 72.511719 152.988281 72.882812 152.988281 73.261719 L 152.988281 106.488281 C 152.988281 106.867188 153.0625 107.238281 153.207031 107.589844 C 153.355469 107.945312 153.5625 108.257812 153.832031 108.527344 C 154.101562 108.796875 154.414062 109.007812 154.769531 109.152344 C 155.121094 109.300781 155.492188 109.371094 155.875 109.371094 L 168.585938 109.371094 C 168.96875 109.371094 169.335938 109.300781 169.6875 109.152344 C 170.042969 109.007812 170.355469 108.796875 170.625 108.527344 C 170.894531 108.257812 171.105469 107.945312 171.25 107.589844 C 171.398438 107.238281 171.46875 106.867188 171.46875 106.488281 L 171.46875 103.769531 L 224.132812 103.769531 C 228.914062 106.933594 235.277344 108.867188 242.265625 108.867188 C 249.25 108.867188 255.613281 106.933594 260.394531 103.769531 L 269.15625 103.769531 C 269.554688 103.769531 269.945312 103.703125 270.324219 103.574219 C 270.703125 103.449219 271.050781 103.261719 271.367188 103.019531 C 271.6875 102.777344 271.957031 102.488281 272.179688 102.15625 C 272.402344 101.824219 272.566406 101.464844 272.671875 101.078125 L 276.414062 101.078125 C 276.914062 101.078125 277.40625 101.128906 277.898438 101.226562 C 278.386719 101.324219 278.859375 101.464844 279.320312 101.65625 C 279.78125 101.847656 280.21875 102.082031 280.632812 102.359375 C 281.046875 102.636719 281.429688 102.949219 281.785156 103.300781 C 282.136719 103.65625 282.449219 104.039062 282.726562 104.453125 C 283.003906 104.867188 283.238281 105.304688 283.429688 105.765625 C 283.621094 106.226562 283.765625 106.699219 283.859375 107.191406 C 283.957031 107.679688 284.007812 108.171875 284.007812 108.671875 L 284.007812 118.671875 L 281.855469 118.671875 C 281.558594 118.671875 281.273438 118.730469 281 118.84375 C 280.726562 118.957031 280.484375 119.117188 280.273438 119.328125 C 280.0625 119.535156 279.902344 119.777344 279.789062 120.050781 C 279.675781 120.324219 279.617188 120.609375 279.617188 120.90625 L 279.617188 126.074219 C 279.617188 126.367188 279.675781 126.652344 279.789062 126.929688 C 279.902344 127.203125 280.0625 127.445312 280.273438 127.652344 C 280.484375 127.863281 280.726562 128.023438 281 128.136719 C 281.273438 128.25 281.558594 128.308594 281.855469 128.308594 L 307.59375 128.308594 C 307.890625 128.308594 308.175781 128.25 308.449219 128.136719 C 308.722656 128.023438 308.960938 127.863281 309.171875 127.652344 C 309.378906 127.441406 309.542969 127.199219 309.65625 126.925781 C 309.769531 126.652344 309.824219 126.367188 309.824219 126.074219 L 309.824219 120.90625 C 309.824219 120.609375 309.769531 120.324219 309.65625 120.050781 C 309.542969 119.777344 309.378906 119.535156 309.171875 119.328125 C 308.960938 119.117188 308.71875 118.957031 308.445312 118.84375 C 308.171875 118.730469 307.886719 118.671875 307.589844 118.671875 Z M 307.589844 118.671875 " fill-opacity="1" fill-rule="nonzero"/></g></svg>