<svg xmlns="http://www.w3.org/2000/svg" xmlns:xlink="http://www.w3.org/1999/xlink" width="500" zoomAndPan="magnify" viewBox="0 0 375 374.999991" height="500" preserveAspectRatio="xMidYMid meet" version="1.0"><defs><clipPath id="840f0ae117"><path d="M 56.105469 76 L 302.855469 76 L 302.855469 316.578125 L 56.105469 316.578125 Z M 56.105469 76 " clip-rule="nonzero"/></clipPath><clipPath id="a1b1e62db8"><path d="M 149 58.578125 L 287 58.578125 L 287 136 L 149 136 Z M 149 58.578125 " clip-rule="nonzero"/></clipPath></defs><g clip-path="url(#840f0ae117)"><path fill="#155dfc" d="M 302.949219 184.484375 C 302.953125 182.429688 302.734375 180.402344 302.300781 178.398438 C 301.863281 176.390625 301.21875 174.457031 300.363281 172.589844 C 299.511719 170.726562 298.46875 168.972656 297.234375 167.332031 C 296.003906 165.691406 294.609375 164.203125 293.054688 162.863281 C 291.757812 161.746094 289.75 162.660156 289.75 164.371094 L 289.75 178.925781 C 289.75 179.886719 289.507812 180.78125 289.027344 181.613281 C 288.546875 182.445312 287.890625 183.101562 287.058594 183.582031 L 277.074219 189.347656 C 276.242188 189.828125 275.34375 190.070312 274.382812 190.070312 C 273.421875 190.070312 272.527344 189.828125 271.695312 189.347656 L 261.710938 183.585938 C 260.875 183.105469 260.21875 182.449219 259.738281 181.617188 C 259.257812 180.785156 259.019531 179.886719 259.019531 178.925781 L 259.019531 164.371094 C 259.019531 162.664062 257.015625 161.738281 255.722656 162.851562 C 255.304688 163.214844 254.890625 163.589844 254.492188 163.980469 C 254.09375 164.367188 253.703125 164.765625 253.328125 165.175781 C 252.953125 165.585938 252.589844 166.007812 252.238281 166.441406 C 251.886719 166.871094 251.546875 167.3125 251.21875 167.765625 C 250.894531 168.21875 250.582031 168.679688 250.285156 169.148438 C 249.984375 169.617188 249.699219 170.097656 249.429688 170.582031 C 249.15625 171.070312 248.902344 171.5625 248.660156 172.0625 C 248.417969 172.566406 248.1875 173.074219 247.976562 173.589844 C 247.765625 174.101562 247.566406 174.625 247.386719 175.148438 C 247.203125 175.675781 247.035156 176.207031 246.886719 176.742188 C 246.734375 177.28125 246.601562 177.820312 246.480469 178.363281 C 246.359375 178.90625 246.257812 179.453125 246.171875 180.003906 C 246.082031 180.554688 246.011719 181.105469 245.957031 181.660156 C 245.902344 182.214844 245.863281 182.769531 245.839844 183.328125 C 245.816406 183.882812 245.808594 184.441406 245.820312 184.996094 C 245.828125 185.554688 245.855469 186.109375 245.898438 186.664062 C 245.941406 187.21875 246 187.773438 246.074219 188.324219 C 246.148438 188.878906 246.238281 189.425781 246.347656 189.972656 C 246.453125 190.519531 246.574219 191.0625 246.714844 191.601562 C 246.851562 192.140625 247.007812 192.675781 247.175781 193.207031 C 247.347656 193.738281 247.53125 194.261719 247.730469 194.78125 C 247.933594 195.300781 248.148438 195.816406 248.378906 196.320312 C 248.609375 196.828125 248.851562 197.328125 249.113281 197.820312 C 249.371094 198.3125 249.644531 198.796875 249.933594 199.273438 C 250.222656 199.75 250.523438 200.21875 250.839844 200.679688 C 251.15625 201.136719 251.484375 201.585938 251.824219 202.027344 C 252.164062 202.464844 252.519531 202.894531 252.886719 203.316406 C 253.253906 203.734375 253.632812 204.140625 254.023438 204.539062 C 254.414062 204.9375 254.816406 205.320312 255.226562 205.695312 C 255.640625 206.070312 256.066406 206.429688 256.5 206.777344 C 256.933594 207.128906 257.375 207.464844 257.832031 207.785156 C 258.285156 208.109375 258.746094 208.417969 259.21875 208.714844 C 259.15625 208.996094 259.089844 209.277344 259.019531 209.558594 L 258.996094 209.671875 C 258.925781 209.953125 258.859375 210.234375 258.785156 210.515625 C 258.777344 210.554688 258.765625 210.59375 258.757812 210.632812 C 258.6875 210.90625 258.617188 211.179688 258.542969 211.453125 L 258.503906 211.59375 C 258.433594 211.851562 258.363281 212.117188 258.289062 212.378906 C 258.273438 212.433594 258.257812 212.492188 258.242188 212.550781 C 258.171875 212.808594 258.097656 213.058594 258.023438 213.3125 C 258.003906 213.375 257.984375 213.4375 257.96875 213.503906 C 257.894531 213.746094 257.820312 213.992188 257.746094 214.234375 C 257.722656 214.308594 257.703125 214.378906 257.679688 214.453125 C 257.613281 214.671875 257.542969 214.890625 257.472656 215.109375 C 257.441406 215.207031 257.410156 215.304688 257.378906 215.398438 C 257.316406 215.597656 257.25 215.792969 257.1875 215.988281 C 257.148438 216.105469 257.109375 216.226562 257.070312 216.34375 C 257.007812 216.515625 256.949219 216.691406 256.886719 216.867188 C 256.839844 217.007812 256.792969 217.144531 256.746094 217.285156 C 256.695312 217.421875 256.636719 217.585938 256.582031 217.734375 C 256.53125 217.886719 256.46875 218.058594 256.414062 218.222656 C 256.375 218.320312 256.335938 218.421875 256.300781 218.523438 C 255.875 219.667969 255.425781 220.804688 254.949219 221.929688 C 252.945312 226.65625 250.507812 231.148438 247.640625 235.40625 C 244.769531 239.660156 241.519531 243.605469 237.890625 247.234375 C 234.261719 250.863281 230.316406 254.113281 226.0625 256.984375 C 221.804688 259.855469 217.3125 262.289062 212.585938 264.292969 C 202.769531 268.445312 192.34375 270.550781 181.597656 270.550781 C 170.855469 270.550781 160.425781 268.445312 150.609375 264.292969 C 149.128906 263.664062 147.671875 262.996094 146.238281 262.289062 C 142.003906 260.183594 137.988281 257.71875 134.191406 254.902344 C 130.394531 252.082031 126.875 248.953125 123.632812 245.507812 C 120.390625 242.066406 117.476562 238.363281 114.894531 234.402344 C 112.308594 230.441406 110.09375 226.285156 108.246094 221.929688 C 104.09375 212.113281 101.988281 201.691406 101.988281 190.941406 C 101.988281 180.195312 104.09375 169.769531 108.246094 159.953125 C 110.25 155.226562 112.6875 150.734375 115.558594 146.480469 C 118.425781 142.222656 121.675781 138.28125 125.304688 134.648438 C 128.9375 131.019531 132.878906 127.769531 137.136719 124.898438 C 141.394531 122.03125 145.882812 119.59375 150.609375 117.589844 C 152.351562 116.851562 154.113281 116.179688 155.890625 115.574219 L 155.890625 86.964844 C 151.460938 88.054688 147.117188 89.425781 142.863281 91.078125 L 136.25 80.316406 C 136.007812 79.921875 135.730469 79.554688 135.414062 79.210938 C 135.101562 78.871094 134.757812 78.5625 134.382812 78.289062 C 134.011719 78.015625 133.613281 77.777344 133.195312 77.578125 C 132.773438 77.382812 132.339844 77.226562 131.890625 77.113281 C 131.441406 77 130.984375 76.929688 130.523438 76.902344 C 130.058594 76.878906 129.597656 76.898438 129.140625 76.960938 C 128.679688 77.023438 128.230469 77.132812 127.792969 77.28125 C 127.355469 77.433594 126.933594 77.625 126.53125 77.855469 L 111.199219 86.707031 C 110.796875 86.9375 110.421875 87.207031 110.074219 87.511719 C 109.722656 87.816406 109.40625 88.152344 109.121094 88.515625 C 108.835938 88.882812 108.589844 89.273438 108.378906 89.6875 C 108.167969 90.097656 108 90.53125 107.875 90.976562 C 107.75 91.421875 107.667969 91.875 107.628906 92.335938 C 107.589844 92.800781 107.597656 93.261719 107.648438 93.722656 C 107.699219 94.183594 107.792969 94.632812 107.933594 95.078125 C 108.070312 95.519531 108.25 95.945312 108.46875 96.351562 L 114.492188 107.484375 C 108.453125 112.34375 103.003906 117.796875 98.140625 123.835938 L 87.011719 117.8125 C 86.601562 117.59375 86.175781 117.414062 85.734375 117.273438 C 85.292969 117.136719 84.839844 117.042969 84.378906 116.992188 C 83.917969 116.9375 83.457031 116.933594 82.996094 116.972656 C 82.53125 117.007812 82.078125 117.089844 81.632812 117.21875 C 81.1875 117.34375 80.757812 117.511719 80.34375 117.722656 C 79.929688 117.929688 79.539062 118.179688 79.171875 118.460938 C 78.808594 118.746094 78.472656 119.066406 78.167969 119.414062 C 77.863281 119.765625 77.59375 120.140625 77.363281 120.542969 L 68.511719 135.871094 C 68.28125 136.273438 68.089844 136.695312 67.9375 137.132812 C 67.789062 137.570312 67.679688 138.019531 67.617188 138.480469 C 67.554688 138.9375 67.535156 139.398438 67.558594 139.863281 C 67.585938 140.328125 67.65625 140.78125 67.769531 141.230469 C 67.882812 141.679688 68.039062 142.117188 68.238281 142.535156 C 68.433594 142.953125 68.671875 143.351562 68.945312 143.722656 C 69.222656 144.097656 69.527344 144.441406 69.871094 144.753906 C 70.210938 145.070312 70.578125 145.347656 70.972656 145.589844 L 81.734375 152.203125 C 78.925781 159.433594 76.933594 166.886719 75.757812 174.554688 L 63.117188 174.902344 C 62.65625 174.917969 62.195312 174.972656 61.746094 175.074219 C 61.292969 175.175781 60.855469 175.320312 60.429688 175.507812 C 60.003906 175.691406 59.601562 175.917969 59.222656 176.183594 C 58.839844 176.445312 58.488281 176.746094 58.164062 177.078125 C 57.839844 177.410156 57.554688 177.769531 57.300781 178.15625 C 57.046875 178.546875 56.832031 178.953125 56.65625 179.382812 C 56.484375 179.8125 56.351562 180.253906 56.261719 180.710938 C 56.171875 181.164062 56.128906 181.625 56.128906 182.089844 L 56.128906 199.792969 C 56.128906 200.257812 56.171875 200.714844 56.261719 201.171875 C 56.351562 201.625 56.484375 202.066406 56.65625 202.496094 C 56.832031 202.925781 57.046875 203.335938 57.300781 203.722656 C 57.554688 204.113281 57.839844 204.472656 58.164062 204.804688 C 58.488281 205.136719 58.839844 205.433594 59.222656 205.699219 C 59.601562 205.964844 60.003906 206.1875 60.429688 206.375 C 60.855469 206.5625 61.292969 206.703125 61.746094 206.804688 C 62.195312 206.90625 62.65625 206.964844 63.117188 206.976562 L 75.757812 207.324219 C 76.933594 214.996094 78.925781 222.445312 81.734375 229.675781 L 70.972656 236.289062 C 70.578125 236.53125 70.210938 236.808594 69.871094 237.125 C 69.527344 237.4375 69.222656 237.78125 68.945312 238.15625 C 68.671875 238.527344 68.433594 238.925781 68.238281 239.34375 C 68.039062 239.765625 67.882812 240.199219 67.769531 240.648438 C 67.65625 241.097656 67.585938 241.554688 67.558594 242.015625 C 67.535156 242.480469 67.554688 242.941406 67.617188 243.398438 C 67.679688 243.859375 67.789062 244.308594 67.9375 244.746094 C 68.089844 245.183594 68.28125 245.605469 68.511719 246.007812 L 77.363281 261.34375 C 77.59375 261.746094 77.863281 262.121094 78.167969 262.46875 C 78.472656 262.820312 78.808594 263.136719 79.171875 263.421875 C 79.539062 263.707031 79.929688 263.953125 80.34375 264.164062 C 80.753906 264.371094 81.1875 264.539062 81.632812 264.664062 C 82.078125 264.792969 82.53125 264.875 82.992188 264.914062 C 83.457031 264.949219 83.917969 264.945312 84.378906 264.894531 C 84.839844 264.84375 85.289062 264.746094 85.734375 264.609375 C 86.175781 264.46875 86.601562 264.292969 87.007812 264.070312 L 98.140625 258.050781 C 103.003906 264.089844 108.457031 269.539062 114.496094 274.402344 L 108.46875 285.53125 C 108.25 285.941406 108.070312 286.367188 107.933594 286.808594 C 107.792969 287.25 107.699219 287.703125 107.648438 288.164062 C 107.597656 288.625 107.589844 289.085938 107.628906 289.546875 C 107.667969 290.007812 107.75 290.464844 107.875 290.910156 C 108.003906 291.355469 108.171875 291.785156 108.378906 292.199219 C 108.589844 292.613281 108.835938 293.003906 109.121094 293.367188 C 109.40625 293.734375 109.722656 294.070312 110.074219 294.375 C 110.421875 294.679688 110.796875 294.945312 111.199219 295.175781 L 126.527344 304.027344 C 126.929688 304.261719 127.351562 304.453125 127.789062 304.601562 C 128.226562 304.753906 128.675781 304.859375 129.136719 304.925781 C 129.59375 304.988281 130.054688 305.007812 130.519531 304.980469 C 130.980469 304.957031 131.4375 304.886719 131.886719 304.773438 C 132.335938 304.660156 132.769531 304.503906 133.191406 304.304688 C 133.609375 304.105469 134.007812 303.871094 134.378906 303.597656 C 134.753906 303.320312 135.097656 303.015625 135.410156 302.671875 C 135.726562 302.332031 136.003906 301.964844 136.246094 301.570312 L 142.859375 290.808594 C 150.089844 293.617188 157.542969 295.609375 165.210938 296.785156 L 165.558594 309.425781 C 165.574219 309.886719 165.628906 310.347656 165.730469 310.796875 C 165.832031 311.25 165.976562 311.6875 166.164062 312.113281 C 166.347656 312.539062 166.574219 312.941406 166.839844 313.320312 C 167.101562 313.703125 167.402344 314.054688 167.734375 314.378906 C 168.066406 314.699219 168.425781 314.988281 168.8125 315.242188 C 169.203125 315.496094 169.609375 315.710938 170.039062 315.886719 C 170.46875 316.058594 170.914062 316.191406 171.367188 316.28125 C 171.824219 316.367188 172.28125 316.414062 172.746094 316.414062 L 190.445312 316.414062 C 190.910156 316.414062 191.367188 316.367188 191.824219 316.28125 C 192.277344 316.191406 192.722656 316.058594 193.152344 315.882812 C 193.582031 315.710938 193.988281 315.496094 194.378906 315.242188 C 194.765625 314.988281 195.125 314.699219 195.457031 314.378906 C 195.789062 314.054688 196.089844 313.703125 196.351562 313.320312 C 196.617188 312.941406 196.84375 312.539062 197.03125 312.113281 C 197.214844 311.6875 197.359375 311.25 197.460938 310.796875 C 197.5625 310.347656 197.621094 309.886719 197.632812 309.425781 L 197.980469 296.785156 C 205.652344 295.605469 213.101562 293.617188 220.332031 290.808594 L 226.945312 301.570312 C 227.1875 301.964844 227.464844 302.332031 227.78125 302.671875 C 228.09375 303.015625 228.4375 303.320312 228.8125 303.597656 C 229.1875 303.871094 229.582031 304.105469 230 304.304688 C 230.421875 304.503906 230.855469 304.660156 231.304688 304.773438 C 231.753906 304.886719 232.210938 304.957031 232.671875 304.980469 C 233.136719 305.007812 233.597656 304.988281 234.054688 304.925781 C 234.515625 304.859375 234.964844 304.753906 235.402344 304.601562 C 235.839844 304.453125 236.261719 304.261719 236.664062 304.027344 L 251.996094 295.175781 C 252.394531 294.945312 252.773438 294.675781 253.121094 294.375 C 253.46875 294.070312 253.789062 293.734375 254.074219 293.367188 C 254.355469 293 254.605469 292.613281 254.8125 292.199219 C 255.023438 291.785156 255.191406 291.355469 255.316406 290.910156 C 255.441406 290.460938 255.523438 290.007812 255.5625 289.546875 C 255.601562 289.085938 255.59375 288.625 255.542969 288.164062 C 255.492188 287.703125 255.398438 287.25 255.261719 286.808594 C 255.121094 286.367188 254.941406 285.941406 254.722656 285.53125 L 248.699219 274.402344 C 254.742188 269.539062 260.195312 264.089844 265.058594 258.046875 L 276.1875 264.070312 C 276.597656 264.292969 277.019531 264.472656 277.464844 264.609375 C 277.90625 264.75 278.359375 264.84375 278.820312 264.894531 C 279.28125 264.945312 279.742188 264.953125 280.203125 264.914062 C 280.664062 264.875 281.121094 264.792969 281.566406 264.667969 C 282.011719 264.542969 282.441406 264.375 282.855469 264.164062 C 283.269531 263.953125 283.660156 263.707031 284.027344 263.421875 C 284.390625 263.136719 284.726562 262.820312 285.03125 262.472656 C 285.335938 262.121094 285.605469 261.746094 285.835938 261.34375 L 294.6875 246.011719 C 294.921875 245.609375 295.113281 245.191406 295.261719 244.75 C 295.414062 244.3125 295.519531 243.863281 295.582031 243.40625 C 295.648438 242.945312 295.667969 242.484375 295.640625 242.023438 C 295.613281 241.558594 295.546875 241.101562 295.433594 240.652344 C 295.316406 240.203125 295.164062 239.769531 294.964844 239.351562 C 294.765625 238.929688 294.53125 238.535156 294.257812 238.160156 C 293.980469 237.789062 293.671875 237.445312 293.332031 237.128906 C 292.992188 236.816406 292.625 236.535156 292.230469 236.292969 L 281.46875 229.683594 C 283.925781 223.34375 285.761719 216.828125 286.972656 210.136719 C 296.433594 205.480469 302.949219 195.742188 302.949219 184.484375 Z M 302.949219 184.484375 " fill-opacity="1" fill-rule="nonzero"/></g><path fill="#00b4ff" d="M 112.691406 209.464844 C 120.789062 240.167969 148.753906 262.808594 181.996094 262.808594 C 215.242188 262.808594 243.203125 240.167969 251.300781 209.464844 C 187.980469 258.632812 109.847656 177.105469 112.691406 209.464844 Z M 112.691406 209.464844 " fill-opacity="1" fill-rule="nonzero"/><path fill="#00b4ff" d="M 284.058594 157.382812 C 284.058594 151.480469 276.613281 141.140625 273.375 141.140625 C 270.785156 141.140625 262.695312 151.480469 262.695312 157.382812 C 262.6875 158.085938 262.75 158.785156 262.882812 159.480469 C 263.015625 160.171875 263.214844 160.84375 263.480469 161.5 C 263.746094 162.152344 264.070312 162.773438 264.460938 163.363281 C 264.847656 163.953125 265.292969 164.496094 265.789062 164.996094 C 266.285156 165.5 266.828125 165.945312 267.410156 166.339844 C 267.996094 166.734375 268.613281 167.066406 269.265625 167.335938 C 269.917969 167.609375 270.589844 167.8125 271.28125 167.953125 C 271.972656 168.089844 272.671875 168.160156 273.375 168.160156 C 274.082031 168.160156 274.78125 168.089844 275.472656 167.953125 C 276.164062 167.8125 276.835938 167.609375 277.488281 167.335938 C 278.136719 167.066406 278.757812 166.734375 279.339844 166.339844 C 279.925781 165.945312 280.46875 165.5 280.964844 164.996094 C 281.460938 164.496094 281.902344 163.949219 282.292969 163.363281 C 282.679688 162.773438 283.007812 162.152344 283.273438 161.5 C 283.539062 160.84375 283.738281 160.171875 283.871094 159.480469 C 284.003906 158.785156 284.066406 158.085938 284.058594 157.382812 Z M 284.058594 157.382812 " fill-opacity="1" fill-rule="nonzero"/><g clip-path="url(#a1b1e62db8)"><path fill="#d9d9d9" d="M 284.90625 127.113281 L 283.875 127.113281 L 283.875 118.484375 C 283.875 103.867188 272.027344 92.015625 257.40625 92.015625 L 254.269531 92.015625 C 254.175781 91.675781 254.03125 91.363281 253.835938 91.070312 C 253.640625 90.78125 253.402344 90.527344 253.125 90.3125 C 252.847656 90.101562 252.539062 89.9375 252.207031 89.824219 C 251.875 89.714844 251.535156 89.65625 251.183594 89.65625 L 244.738281 89.65625 C 243.519531 88.726562 242.21875 87.925781 240.84375 87.253906 L 240.84375 76.921875 C 240.84375 76.660156 240.792969 76.410156 240.695312 76.171875 C 240.59375 75.929688 240.453125 75.71875 240.269531 75.535156 C 240.085938 75.351562 239.871094 75.207031 239.632812 75.109375 C 239.390625 75.007812 239.140625 74.960938 238.882812 74.960938 L 230.6875 74.960938 L 230.6875 66 C 230.777344 65.925781 230.867188 65.84375 230.949219 65.761719 L 244.351562 65.761719 C 244.757812 65.753906 245.148438 65.671875 245.519531 65.511719 C 245.894531 65.351562 246.222656 65.125 246.507812 64.835938 C 246.792969 64.546875 247.011719 64.214844 247.167969 63.839844 C 247.320312 63.460938 247.398438 63.070312 247.398438 62.664062 C 247.398438 62.257812 247.320312 61.867188 247.167969 61.492188 C 247.011719 61.117188 246.792969 60.785156 246.507812 60.492188 C 246.222656 60.203125 245.894531 59.980469 245.519531 59.820312 C 245.148438 59.660156 244.757812 59.574219 244.351562 59.570312 L 230.199219 59.570312 C 229.808594 59.324219 229.390625 59.140625 228.949219 59.015625 C 228.507812 58.890625 228.054688 58.824219 227.597656 58.824219 C 227.136719 58.824219 226.6875 58.890625 226.242188 59.015625 C 225.800781 59.140625 225.386719 59.324219 224.996094 59.570312 L 210.832031 59.570312 C 210.425781 59.574219 210.035156 59.660156 209.660156 59.820312 C 209.289062 59.980469 208.957031 60.203125 208.675781 60.492188 C 208.390625 60.785156 208.167969 61.117188 208.015625 61.492188 C 207.863281 61.867188 207.785156 62.257812 207.785156 62.664062 C 207.785156 63.070312 207.863281 63.460938 208.015625 63.839844 C 208.167969 64.214844 208.390625 64.546875 208.675781 64.835938 C 208.957031 65.125 209.289062 65.351562 209.660156 65.511719 C 210.035156 65.671875 210.425781 65.753906 210.832031 65.761719 L 224.234375 65.761719 C 224.320312 65.847656 224.40625 65.925781 224.492188 66 L 224.492188 74.960938 L 216.296875 74.960938 C 216.035156 74.960938 215.785156 75.007812 215.546875 75.109375 C 215.304688 75.207031 215.09375 75.351562 214.910156 75.535156 C 214.726562 75.71875 214.585938 75.929688 214.484375 76.171875 C 214.386719 76.410156 214.335938 76.660156 214.335938 76.921875 L 214.335938 87.25 C 212.957031 87.925781 211.660156 88.726562 210.441406 89.65625 L 165.480469 89.65625 L 165.480469 87.273438 C 165.480469 86.9375 165.417969 86.613281 165.289062 86.304688 C 165.160156 85.992188 164.976562 85.71875 164.738281 85.484375 C 164.503906 85.246094 164.230469 85.0625 163.917969 84.933594 C 163.609375 84.804688 163.285156 84.742188 162.949219 84.742188 L 151.796875 84.742188 C 151.460938 84.742188 151.140625 84.804688 150.828125 84.933594 C 150.519531 85.0625 150.246094 85.246094 150.007812 85.480469 C 149.769531 85.71875 149.585938 85.992188 149.460938 86.304688 C 149.332031 86.613281 149.265625 86.9375 149.265625 87.273438 L 149.265625 116.421875 C 149.265625 116.753906 149.332031 117.078125 149.460938 117.390625 C 149.585938 117.699219 149.769531 117.972656 150.007812 118.210938 C 150.246094 118.449219 150.519531 118.628906 150.828125 118.757812 C 151.140625 118.886719 151.460938 118.953125 151.796875 118.953125 L 162.949219 118.953125 C 163.285156 118.953125 163.609375 118.886719 163.917969 118.757812 C 164.230469 118.628906 164.503906 118.449219 164.742188 118.210938 C 164.976562 117.972656 165.160156 117.699219 165.289062 117.390625 C 165.417969 117.078125 165.480469 116.753906 165.480469 116.421875 L 165.480469 114.035156 L 211.683594 114.035156 C 215.878906 116.8125 221.460938 118.507812 227.59375 118.507812 C 233.722656 118.507812 239.304688 116.8125 243.5 114.035156 L 251.1875 114.035156 C 251.535156 114.035156 251.878906 113.980469 252.210938 113.867188 C 252.542969 113.753906 252.847656 113.589844 253.128906 113.378906 C 253.40625 113.164062 253.644531 112.914062 253.839844 112.621094 C 254.035156 112.328125 254.179688 112.015625 254.269531 111.675781 L 257.554688 111.675781 C 257.992188 111.675781 258.425781 111.71875 258.855469 111.804688 C 259.285156 111.890625 259.699219 112.015625 260.105469 112.183594 C 260.507812 112.351562 260.890625 112.554688 261.253906 112.796875 C 261.617188 113.042969 261.957031 113.316406 262.265625 113.625 C 262.574219 113.9375 262.851562 114.273438 263.09375 114.636719 C 263.335938 115 263.539062 115.382812 263.707031 115.789062 C 263.875 116.191406 264.003906 116.609375 264.085938 117.035156 C 264.171875 117.464844 264.214844 117.898438 264.214844 118.335938 L 264.214844 127.113281 L 262.328125 127.113281 C 262.066406 127.113281 261.816406 127.160156 261.574219 127.261719 C 261.335938 127.359375 261.125 127.5 260.941406 127.6875 C 260.757812 127.871094 260.613281 128.082031 260.515625 128.320312 C 260.414062 128.5625 260.367188 128.8125 260.367188 129.070312 L 260.367188 133.605469 C 260.367188 133.863281 260.414062 134.113281 260.515625 134.355469 C 260.613281 134.59375 260.753906 134.804688 260.941406 134.992188 C 261.125 135.175781 261.335938 135.316406 261.574219 135.414062 C 261.816406 135.515625 262.066406 135.566406 262.328125 135.566406 L 284.90625 135.566406 C 285.167969 135.566406 285.417969 135.515625 285.65625 135.414062 C 285.898438 135.316406 286.109375 135.171875 286.292969 134.988281 C 286.476562 134.804688 286.617188 134.59375 286.71875 134.355469 C 286.816406 134.113281 286.867188 133.863281 286.867188 133.605469 L 286.867188 129.070312 C 286.867188 128.8125 286.816406 128.5625 286.71875 128.320312 C 286.617188 128.082031 286.476562 127.871094 286.292969 127.6875 C 286.109375 127.5 285.894531 127.359375 285.65625 127.261719 C 285.414062 127.160156 285.164062 127.113281 284.90625 127.113281 Z M 284.90625 127.113281 " fill-opacity="1" fill-rule="nonzero"/></g></svg>